<?xml version="1.0" encoding="UTF-8"?><svg id="Content" xmlns="http://www.w3.org/2000/svg" viewBox="0 0 735.96 797.02"><defs><style>.cls-1{fill:#ecb01f;}.cls-2{fill:#eeb727;}.cls-3{fill:#ffc51b;}.cls-4{fill:#fce301;}.cls-5{fill:#d3962a;}</style></defs><ellipse class="cls-1" cx="433.76" cy="401.26" rx="229.33" ry="304.73"/><path class="cls-5" d="M422.36,96.82c121.96,7.04,219.2,140.65,219.2,304.44s-96.91,296.93-218.57,304.4c3.57,.22,7.15,.33,10.76,.33,126.65,0,229.33-136.43,229.33-304.73S560.41,96.53,433.76,96.53c-3.96,0-7.89,.13-11.8,.4"/><path class="cls-3" d="M398.85,26.12c8.59-1.06,17.3-1.61,26.1-1.61,154.94,0,280.55,168.67,280.55,376.74,0,12.72-.47,25.3-1.39,37.7l-42.53-72.77c-12.81-148.59-106.06-264.69-220.44-269.5l-42.3-70.56Z"/><path class="cls-3" d="M698.49,485.33c2.57-15.13,4.46-30.61,5.63-46.38l-42.53-72.77c.99,11.51,1.5,23.21,1.5,35.07,0,6.7-.16,13.36-.48,19.96l35.88,64.12Z"/><path class="cls-3" d="M689.78,525.89c3.44-13.2,6.36-26.74,8.7-40.56l-35.88-64.12c-.78,16.05-2.5,31.76-5.08,47.04l32.26,57.64Z"/><path class="cls-3" d="M635.05,650.93c23.84-36.16,42.59-78.51,54.74-125.04l-32.26-57.64c-8.88,52.6-28,100.06-54.42,138.49l31.94,44.19Z"/><path class="cls-3" d="M614.13,679.45c7.34-9,14.32-18.53,20.91-28.52l-31.94-44.19c-6.81,9.91-14.11,19.21-21.84,27.85l32.87,44.86Z"/><path class="cls-3" d="M576.19,718.62c13.48-11.61,26.17-24.72,37.94-39.17l-32.87-44.86c-11.85,13.24-24.72,24.91-38.43,34.78l33.35,49.25Z"/><path class="cls-3" d="M550.01,738.59c9.01-6.04,17.75-12.71,26.18-19.96l-33.35-49.25c-8.95,6.44-18.26,12.12-27.88,16.96l35.05,52.26Z"/><path class="cls-4" d="M463.12,774.54c30.84-5.63,60.09-18,86.9-35.96l-35.05-52.26c-25.24,12.7-52.61,19.65-81.2,19.65-4.16,0-8.3-.15-12.4-.44l41.76,68.99Z"/><path class="cls-3" d="M463.12,774.54c-12.48,2.28-25.22,3.46-38.17,3.46-154.94,0-280.55-168.67-280.55-376.74,0-18.85,1.03-37.38,3.02-55.48l57.61,77.68c8.26,152.51,100.98,273.93,216.33,282.1l41.76,68.99Z"/><path class="cls-4" d="M175.41,228.91c-13.81,35.97-23.42,75.31-27.99,116.87l57.61,77.68c-.4-7.33-.6-14.73-.6-22.19,0-38.68,5.42-75.67,15.31-109.71l-44.33-62.64"/><path class="cls-3" d="M175.41,228.91c4.91-12.79,10.34-25.14,16.27-37.03,8.4-16.84,17.78-32.71,28.03-47.48,5.9-8.5,12.09-16.63,18.55-24.37,28.6-34.26,62.45-60.76,99.73-77.07,9.77-4.27,19.77-7.85,29.98-10.67s20.4-4.87,30.87-6.16l42.3,70.56c-2.45-.1-4.92-.16-7.39-.16-9.66,0-19.18,.79-28.52,2.33-10.71,1.77-21.19,4.51-31.38,8.17-37.31,13.38-70.85,38.96-98.05,73.31-6.35,8.02-12.36,16.53-17.99,25.46-9.83,15.61-18.5,32.54-25.85,50.57-4.61,11.31-8.69,23.05-12.21,35.17l-44.33-62.64Z"/><path class="cls-2" d="M300.17,778c-154.94,0-280.55-168.67-280.55-376.74S145.23,24.51,300.17,24.51h124.78c-8.8,0-17.51,.54-26.1,1.61-10.47,1.3-20.77,3.37-30.87,6.16-10.21,2.83-20.21,6.4-29.98,10.67-37.28,16.31-71.14,42.81-99.73,77.07-6.46,7.74-12.65,15.87-18.55,24.37-10.25,14.77-19.63,30.65-28.03,47.48-5.93,11.88-11.36,24.24-16.27,37.03-13.81,35.97-23.42,75.31-27.99,116.87-1.99,18.11-3.02,36.63-3.02,55.48,0,208.07,125.61,376.74,280.55,376.74h-124.78Z"/></svg>